<!--?xml version="1.0" standalone="no"?-->
              <svg id="sw-js-blob-svg" viewBox="0 0 100 100" xmlns="http://www.w3.org/2000/svg" version="1.1">
                    <defs> 
                        <linearGradient id="sw-gradient" x1="0" x2="1" y1="1" y2="0">
                            <stop id="stop1" stop-color="rgba(205.736, 156.054, 67.611, 1)" offset="0%"></stop>
                            <stop id="stop2" stop-color="rgba(228.191, 131.908, 21.002, 1)" offset="100%"></stop>
                        </linearGradient>
                    </defs>
                <path fill="url(#sw-gradient)" d="M17.8,-23.8C25.5,-18.8,36,-17,38.4,-12C40.7,-6.9,34.9,1.3,31.7,10C28.5,18.8,27.9,28.2,23.1,33.5C18.2,38.9,9.1,40.1,0.4,39.6C-8.4,39.1,-16.7,36.9,-22.5,31.8C-28.2,26.8,-31.2,18.9,-32.4,11.5C-33.5,4,-32.8,-3.2,-30.1,-9.3C-27.4,-15.3,-22.8,-20.2,-17.5,-25.9C-12.1,-31.7,-6.1,-38.3,-0.5,-37.6C5,-36.8,10,-28.8,17.8,-23.8Z" width="100%" height="100%" transform="translate(50 50)" stroke-width="0" style="transition: all 0.3s ease 0s;" stroke="url(#sw-gradient)"></path>
              </svg>